<svg xmlns="http://www.w3.org/2000/svg" xmlns:xlink="http://www.w3.org/1999/xlink" width="500" zoomAndPan="magnify" viewBox="0 0 375 374.999991" height="500" preserveAspectRatio="xMidYMid meet" version="1.0"><defs><clipPath id="a333872bc3"><path d="M 89.660156 0.355469 L 285.375 0.355469 L 285.375 374.644531 L 89.660156 374.644531 Z M 89.660156 0.355469 " clip-rule="nonzero"/></clipPath></defs><g clip-path="url(#a333872bc3)"><path fill="#069ede" d="M 274.753906 153.058594 C 276.402344 161.261719 273.113281 179.128906 273.113281 179.128906 C 273.113281 179.128906 254.386719 244.78125 250.230469 258.300781 C 246.179688 271.722656 240.484375 279.925781 231.695312 282.34375 C 222.90625 284.757812 221.648438 300.296875 221.648438 300.296875 C 221.648438 300.296875 206.109375 312.949219 199.640625 323.179688 C 193.070312 333.421875 175.984375 372.332031 168.261719 374.644531 C 168.261719 374.644531 165.460938 374.453125 165.84375 371.847656 C 166.132812 369.242188 171.832031 361.90625 170.867188 354.367188 C 169.898438 346.84375 170.289062 338.4375 155.222656 337.570312 C 140.164062 336.699219 128.769531 326.5625 125.195312 322.3125 C 121.71875 318.066406 112.9375 307.640625 107.433594 306.382812 C 101.929688 305.125 91.695312 289.390625 91.695312 289.390625 C 91.695312 289.390625 92.464844 279.636719 89.859375 277.898438 C 87.253906 276.257812 111.097656 241.015625 111.097656 241.015625 C 111.097656 241.015625 115.25 239.667969 117.183594 239.953125 C 119.210938 240.246094 121.621094 236.480469 123.457031 236.480469 C 125.292969 236.480469 133.113281 235.222656 134.371094 233.875 C 135.625 232.519531 141.222656 230.394531 142.1875 228.363281 C 143.15625 226.34375 146.050781 217.9375 148.753906 216.296875 C 151.457031 214.660156 156.574219 214.949219 158.21875 212.433594 C 159.957031 210.023438 160.050781 208.765625 161.789062 207.507812 C 163.433594 206.257812 177.234375 197.082031 177.234375 197.082031 C 177.234375 197.082031 188.148438 196.3125 188.539062 190.808594 C 189.019531 185.304688 185.925781 178.742188 185.15625 178.449219 C 184.382812 178.15625 183.125 170.820312 181.488281 170.625 C 179.847656 170.441406 180.523438 161.945312 176.855469 161.261719 C 176.855469 161.261719 175.214844 154.21875 173.957031 154.121094 C 172.699219 153.925781 171.15625 145.820312 163.722656 145.820312 C 156.285156 145.820312 149.625 147.070312 149.625 144.464844 C 149.625 141.859375 150.878906 124.574219 147.980469 122.457031 C 145.085938 120.328125 136.007812 120.136719 135.914062 114.632812 C 135.71875 109.125 135.914062 94.929688 135.914062 94.929688 C 135.914062 94.929688 134.851562 90.96875 141.417969 86.53125 C 147.980469 82.09375 151.84375 75.527344 151.84375 73.113281 C 151.84375 70.699219 151.265625 68.671875 148.464844 66.644531 C 145.664062 64.617188 143.253906 60.65625 144.3125 58.242188 C 145.375 55.828125 145.085938 53.996094 153 49.554688 C 160.921875 45.109375 171.058594 26.863281 171.058594 26.863281 C 171.058594 26.863281 175.019531 21.84375 175.117188 19.621094 C 175.117188 19.621094 175.117188 7.359375 180.035156 7.359375 C 184.960938 7.359375 184.480469 -0.363281 190.65625 0.410156 C 196.839844 1.183594 209.003906 11.800781 209.003906 11.800781 C 209.003906 11.800781 209.875 15.859375 215.179688 15.859375 C 220.496094 15.859375 220.878906 20.78125 224.933594 21.941406 C 228.992188 23.195312 232.269531 27.25 235.9375 29.664062 C 239.609375 32.078125 245.984375 32.945312 245.984375 32.945312 L 257.566406 41.15625 C 257.566406 41.15625 261.242188 44.820312 264.910156 46.078125 C 268.578125 47.332031 271.855469 53.03125 273.113281 53.03125 C 274.371094 53.03125 285.375 56.699219 285.375 61.234375 C 285.375 65.773438 269.828125 102.46875 269.828125 102.46875 C 269.828125 102.46875 252.648438 113.855469 249.457031 120.808594 C 246.179688 127.761719 236.035156 138.765625 249.070312 144.082031 C 262.109375 149.390625 273.113281 144.851562 274.753906 153.058594 " fill-opacity="1" fill-rule="nonzero"/></g><path fill="#233457" d="M 208.019531 180.1875 C 208.019531 195.515625 185.148438 224.308594 177.09375 233.980469 C 175.648438 235.707031 173 235.707031 171.554688 233.980469 C 163.496094 224.308594 140.632812 195.515625 140.632812 180.1875 C 140.632812 161.585938 155.714844 146.5 174.324219 146.5 C 192.933594 146.5 208.019531 161.585938 208.019531 180.1875 " fill-opacity="1" fill-rule="nonzero"/><path fill="#ffffff" d="M 183.335938 194.796875 L 174.324219 188.25 L 165.304688 194.796875 L 168.746094 184.199219 L 159.734375 177.648438 L 170.878906 177.648438 L 174.324219 167.046875 L 177.765625 177.648438 L 188.914062 177.648438 L 179.894531 184.199219 Z M 174.324219 161.6875 C 163.074219 161.6875 153.953125 170.804688 153.953125 182.058594 C 153.953125 193.308594 163.074219 202.433594 174.324219 202.433594 C 185.574219 202.433594 194.691406 193.308594 194.691406 182.058594 C 194.691406 170.804688 185.574219 161.6875 174.324219 161.6875 Z M 206.332031 273.796875 C 206.28125 273.730469 206.226562 273.65625 206.191406 273.570312 C 206.144531 273.480469 206.132812 273.398438 206.132812 273.316406 L 206.132812 270.171875 C 206.132812 270.105469 206.160156 270.046875 206.222656 269.988281 C 206.28125 269.925781 206.339844 269.898438 206.40625 269.898438 L 207.367188 269.898438 C 207.441406 269.898438 207.507812 269.925781 207.5625 269.988281 C 207.613281 270.046875 207.644531 270.105469 207.644531 270.171875 L 207.644531 272.726562 C 207.644531 272.785156 207.664062 272.867188 207.703125 272.957031 C 207.742188 273.054688 207.785156 273.128906 207.84375 273.199219 L 211.265625 276.542969 L 214.671875 273.199219 C 214.738281 273.128906 214.785156 273.054688 214.820312 272.957031 C 214.851562 272.867188 214.875 272.785156 214.875 272.726562 L 214.875 270.171875 C 214.875 270.105469 214.898438 270.046875 214.949219 269.988281 C 215 269.925781 215.070312 269.898438 215.152344 269.898438 L 216.101562 269.898438 C 216.183594 269.898438 216.253906 269.925781 216.304688 269.988281 C 216.355469 270.046875 216.386719 270.105469 216.386719 270.171875 L 216.386719 273.316406 C 216.386719 273.398438 216.363281 273.480469 216.320312 273.570312 C 216.28125 273.65625 216.238281 273.730469 216.183594 273.796875 L 212.023438 277.9375 L 212.023438 283.273438 C 212.023438 283.355469 211.992188 283.421875 211.933594 283.476562 C 211.871094 283.527344 211.8125 283.550781 211.746094 283.550781 L 210.789062 283.550781 C 210.601562 283.550781 210.511719 283.460938 210.511719 283.273438 L 210.511719 277.9375 Z M 191.398438 283.273438 L 191.398438 270.171875 C 191.398438 269.988281 191.488281 269.898438 191.675781 269.898438 L 200.957031 269.898438 C 201.136719 269.898438 201.234375 269.988281 201.234375 270.171875 L 201.234375 271.132812 C 201.234375 271.3125 201.136719 271.410156 200.957031 271.410156 L 192.890625 271.410156 L 192.890625 275.96875 L 199.878906 275.96875 C 199.949219 275.96875 200.007812 275.996094 200.066406 276.058594 C 200.128906 276.117188 200.15625 276.175781 200.15625 276.246094 L 200.15625 277.203125 C 200.15625 277.285156 200.128906 277.34375 200.066406 277.398438 C 200.007812 277.449219 199.949219 277.480469 199.878906 277.480469 L 192.890625 277.480469 L 192.890625 282.039062 L 200.957031 282.039062 C 201.035156 282.039062 201.101562 282.070312 201.152344 282.128906 C 201.207031 282.1875 201.234375 282.25 201.234375 282.316406 L 201.234375 283.273438 C 201.234375 283.460938 201.136719 283.550781 200.957031 283.550781 L 191.675781 283.550781 C 191.488281 283.550781 191.398438 283.460938 191.398438 283.273438 Z M 176.007812 280.644531 L 176.007812 279.734375 C 176.007812 279.664062 176.039062 279.605469 176.097656 279.539062 C 176.15625 279.484375 176.226562 279.457031 176.285156 279.457031 L 177.242188 279.457031 C 177.324219 279.457031 177.394531 279.484375 177.445312 279.539062 C 177.496094 279.605469 177.519531 279.664062 177.519531 279.734375 L 177.519531 280.644531 C 177.519531 281.035156 177.65625 281.355469 177.933594 281.632812 C 178.203125 281.902344 178.53125 282.039062 178.914062 282.039062 L 183.351562 282.039062 C 183.742188 282.039062 184.070312 281.902344 184.339844 281.632812 C 184.609375 281.355469 184.75 281.035156 184.75 280.644531 L 184.75 278.871094 C 184.75 278.492188 184.609375 278.160156 184.339844 277.890625 C 184.070312 277.613281 183.742188 277.480469 183.351562 277.480469 L 178.914062 277.480469 C 178.515625 277.480469 178.140625 277.40625 177.789062 277.246094 C 177.4375 277.097656 177.132812 276.894531 176.867188 276.632812 C 176.597656 276.378906 176.390625 276.066406 176.242188 275.714844 C 176.082031 275.355469 176.007812 274.972656 176.007812 274.574219 L 176.007812 272.800781 C 176.007812 272.40625 176.082031 272.03125 176.242188 271.679688 C 176.390625 271.328125 176.597656 271.019531 176.867188 270.75 C 177.132812 270.488281 177.4375 270.277344 177.789062 270.128906 C 178.140625 269.972656 178.515625 269.898438 178.914062 269.898438 L 183.351562 269.898438 C 183.757812 269.898438 184.128906 269.972656 184.480469 270.128906 C 184.832031 270.277344 185.140625 270.488281 185.402344 270.75 C 185.671875 271.019531 185.882812 271.328125 186.03125 271.679688 C 186.1875 272.03125 186.265625 272.40625 186.265625 272.800781 L 186.265625 273.722656 C 186.265625 273.910156 186.175781 274 185.988281 274 L 185.027344 274 C 184.839844 274 184.75 273.910156 184.75 273.722656 L 184.75 272.800781 C 184.75 272.417969 184.609375 272.089844 184.339844 271.820312 C 184.070312 271.542969 183.742188 271.410156 183.351562 271.410156 L 178.914062 271.410156 C 178.53125 271.410156 178.203125 271.542969 177.933594 271.820312 C 177.65625 272.089844 177.519531 272.417969 177.519531 272.800781 L 177.519531 274.574219 C 177.519531 274.957031 177.65625 275.285156 177.933594 275.5625 C 178.203125 275.832031 178.53125 275.96875 178.914062 275.96875 L 183.351562 275.96875 C 183.757812 275.96875 184.128906 276.042969 184.480469 276.191406 C 184.832031 276.347656 185.140625 276.558594 185.402344 276.820312 C 185.671875 277.089844 185.882812 277.398438 186.03125 277.75 C 186.1875 278.101562 186.265625 278.476562 186.265625 278.871094 L 186.265625 280.644531 C 186.265625 281.042969 186.1875 281.425781 186.03125 281.785156 C 185.882812 282.144531 185.671875 282.449219 185.402344 282.703125 C 185.140625 282.96875 184.832031 283.167969 184.480469 283.324219 C 184.128906 283.476562 183.757812 283.550781 183.351562 283.550781 L 178.914062 283.550781 C 178.515625 283.550781 178.140625 283.476562 177.789062 283.324219 C 177.4375 283.167969 177.132812 282.964844 176.867188 282.703125 C 176.597656 282.449219 176.390625 282.144531 176.242188 281.785156 C 176.082031 281.425781 176.007812 281.042969 176.007812 280.644531 Z M 162.453125 275.96875 L 168.28125 275.96875 C 168.671875 275.96875 168.992188 275.832031 169.269531 275.5625 C 169.539062 275.285156 169.675781 274.957031 169.675781 274.574219 L 169.675781 272.800781 C 169.675781 272.417969 169.539062 272.089844 169.269531 271.820312 C 168.992188 271.542969 168.671875 271.410156 168.28125 271.410156 L 162.453125 271.410156 Z M 169.300781 283.296875 L 166.710938 277.480469 L 162.453125 277.480469 L 162.453125 283.273438 C 162.453125 283.460938 162.359375 283.550781 162.171875 283.550781 L 161.238281 283.550781 C 161.050781 283.550781 160.957031 283.460938 160.957031 283.273438 L 160.957031 270.171875 C 160.957031 269.988281 161.050781 269.898438 161.238281 269.898438 L 168.28125 269.898438 C 168.6875 269.898438 169.0625 269.972656 169.414062 270.128906 C 169.765625 270.277344 170.070312 270.488281 170.332031 270.75 C 170.601562 271.019531 170.8125 271.328125 170.960938 271.679688 C 171.113281 272.03125 171.1875 272.402344 171.1875 272.800781 L 171.1875 274.574219 C 171.1875 275.226562 170.992188 275.804688 170.601562 276.3125 C 170.214844 276.828125 169.707031 277.171875 169.082031 277.359375 L 168.402344 277.5625 L 170.957031 283.296875 C 170.992188 283.355469 170.992188 283.421875 170.960938 283.476562 C 170.933594 283.527344 170.871094 283.550781 170.789062 283.550781 L 169.699219 283.550781 C 169.621094 283.550781 169.539062 283.527344 169.457031 283.476562 C 169.382812 283.421875 169.332031 283.355469 169.300781 283.296875 Z M 146.207031 283.273438 L 146.207031 270.171875 C 146.207031 269.988281 146.300781 269.898438 146.484375 269.898438 L 155.761719 269.898438 C 155.949219 269.898438 156.039062 269.988281 156.039062 270.171875 L 156.039062 271.132812 C 156.039062 271.3125 155.949219 271.410156 155.761719 271.410156 L 147.699219 271.410156 L 147.699219 275.96875 L 154.6875 275.96875 C 154.753906 275.96875 154.816406 275.996094 154.875 276.058594 C 154.9375 276.117188 154.96875 276.175781 154.96875 276.246094 L 154.96875 277.203125 C 154.96875 277.285156 154.9375 277.34375 154.875 277.398438 C 154.816406 277.449219 154.753906 277.480469 154.6875 277.480469 L 147.699219 277.480469 L 147.699219 282.039062 L 155.761719 282.039062 C 155.839844 282.039062 155.910156 282.070312 155.960938 282.128906 C 156.015625 282.1875 156.039062 282.25 156.039062 282.316406 L 156.039062 283.273438 C 156.039062 283.460938 155.949219 283.550781 155.761719 283.550781 L 146.484375 283.550781 C 146.300781 283.550781 146.207031 283.460938 146.207031 283.273438 Z M 130.9375 278.976562 C 130.9375 278.910156 130.964844 278.84375 131.027344 278.78125 C 131.089844 278.722656 131.148438 278.691406 131.21875 278.691406 L 132.171875 278.691406 C 132.253906 278.691406 132.316406 278.722656 132.371094 278.78125 C 132.425781 278.84375 132.449219 278.910156 132.449219 278.976562 L 132.449219 280.644531 C 132.449219 281.035156 132.585938 281.355469 132.859375 281.632812 C 133.128906 281.902344 133.460938 282.039062 133.84375 282.039062 L 138.085938 282.039062 C 138.46875 282.039062 138.800781 281.902344 139.070312 281.632812 C 139.339844 281.355469 139.476562 281.035156 139.476562 280.644531 L 139.476562 271.410156 L 131.234375 271.410156 C 131.050781 271.410156 130.957031 271.3125 130.957031 271.132812 L 130.957031 270.171875 C 130.957031 269.988281 131.050781 269.898438 131.234375 269.898438 L 140.710938 269.898438 C 140.898438 269.898438 140.992188 269.988281 140.992188 270.171875 L 140.992188 280.644531 C 140.992188 281.042969 140.914062 281.425781 140.761719 281.785156 C 140.609375 282.144531 140.398438 282.449219 140.136719 282.703125 C 139.871094 282.96875 139.558594 283.167969 139.207031 283.324219 C 138.859375 283.476562 138.484375 283.550781 138.085938 283.550781 L 133.84375 283.550781 C 133.445312 283.550781 133.070312 283.476562 132.71875 283.324219 C 132.367188 283.167969 132.058594 282.96875 131.792969 282.703125 C 131.527344 282.449219 131.320312 282.144531 131.167969 281.785156 C 131.011719 281.425781 130.9375 281.042969 130.9375 280.644531 Z M 192.710938 246.285156 C 192.722656 246.21875 192.761719 246.160156 192.820312 246.089844 C 192.882812 246.039062 192.949219 246.007812 193.03125 246.007812 L 193.964844 246.007812 C 194.035156 246.007812 194.09375 246.039062 194.144531 246.089844 C 194.199219 246.160156 194.230469 246.21875 194.230469 246.285156 L 193.1875 259.386719 C 193.1875 259.460938 193.160156 259.527344 193.097656 259.582031 C 193.046875 259.632812 192.972656 259.664062 192.890625 259.664062 L 191.699219 259.664062 C 191.511719 259.664062 191.375 259.582031 191.277344 259.425781 L 188.675781 254.984375 L 186.0625 259.425781 C 185.972656 259.582031 185.828125 259.664062 185.640625 259.664062 L 184.453125 259.664062 C 184.371094 259.664062 184.300781 259.632812 184.242188 259.582031 C 184.183594 259.527344 184.152344 259.460938 184.152344 259.386719 L 183.121094 246.285156 C 183.105469 246.21875 183.128906 246.160156 183.179688 246.089844 C 183.230469 246.039062 183.300781 246.007812 183.375 246.007812 L 184.308594 246.007812 C 184.390625 246.007812 184.460938 246.039062 184.511719 246.089844 C 184.566406 246.160156 184.59375 246.21875 184.609375 246.285156 L 185.484375 257.648438 L 187.859375 253.425781 C 187.949219 253.269531 188.082031 253.195312 188.269531 253.195312 L 189.070312 253.195312 C 189.257812 253.195312 189.394531 253.269531 189.488281 253.425781 L 191.855469 257.648438 Z M 168.808594 259.386719 L 168.808594 246.285156 C 168.808594 246.097656 168.898438 246.007812 169.082031 246.007812 L 178.359375 246.007812 C 178.546875 246.007812 178.636719 246.097656 178.636719 246.285156 L 178.636719 247.238281 C 178.636719 247.425781 178.546875 247.519531 178.359375 247.519531 L 170.296875 247.519531 L 170.296875 252.082031 L 177.28125 252.082031 C 177.347656 252.082031 177.414062 252.109375 177.476562 252.171875 C 177.535156 252.222656 177.566406 252.289062 177.566406 252.355469 L 177.566406 253.308594 C 177.566406 253.390625 177.535156 253.457031 177.476562 253.511719 C 177.414062 253.5625 177.347656 253.59375 177.28125 253.59375 L 170.296875 253.59375 L 170.296875 258.152344 L 178.359375 258.152344 C 178.441406 258.152344 178.5 258.179688 178.5625 258.242188 C 178.605469 258.300781 178.636719 258.359375 178.636719 258.429688 L 178.636719 259.386719 C 178.636719 259.566406 178.546875 259.664062 178.359375 259.664062 L 169.082031 259.664062 C 168.898438 259.664062 168.808594 259.566406 168.808594 259.386719 Z M 162.15625 259.386719 L 162.15625 253.667969 L 154.925781 247.695312 L 154.925781 259.386719 C 154.925781 259.566406 154.835938 259.664062 154.648438 259.664062 L 153.691406 259.664062 C 153.625 259.664062 153.5625 259.632812 153.503906 259.582031 C 153.445312 259.527344 153.414062 259.460938 153.414062 259.386719 L 153.414062 246.285156 C 153.414062 246.203125 153.445312 246.136719 153.503906 246.085938 C 153.5625 246.03125 153.625 246.007812 153.691406 246.007812 L 155.023438 246.007812 C 155.210938 246.007812 155.375 246.0625 155.523438 246.179688 L 162.15625 251.660156 L 162.15625 246.285156 C 162.15625 246.097656 162.246094 246.007812 162.433594 246.007812 L 163.386719 246.007812 C 163.574219 246.007812 163.667969 246.097656 163.667969 246.285156 L 163.667969 259.386719 C 163.667969 259.566406 163.574219 259.664062 163.386719 259.664062 L 162.433594 259.664062 C 162.246094 259.664062 162.15625 259.566406 162.15625 259.386719 " fill-opacity="1" fill-rule="nonzero"/></svg>